<svg width="42" height="41" viewBox="0 0 42 41" fill="none" xmlns="http://www.w3.org/2000/svg">
<path d="M20.1457 26.6107V11.8336L16.1653 15.814L14.9558 14.5874L20.9998 8.54166L27.0456 14.5874L25.8361 15.8157L21.854 11.8336V26.6107H20.1457ZM11.8022 32.4583C11.0152 32.4583 10.3586 32.1952 9.83246 31.6691C9.3063 31.1429 9.04264 30.4858 9.0415 29.6977V25.5584H10.7498V29.6977C10.7498 29.9607 10.8592 30.2022 11.0778 30.422C11.2965 30.6418 11.5374 30.7511 11.8005 30.75H30.1992C30.4612 30.75 30.702 30.6407 30.9218 30.422C31.1416 30.2033 31.251 29.9619 31.2498 29.6977V25.5584H32.9582V29.6977C32.9582 30.4846 32.6951 31.1412 32.1689 31.6674C31.6428 32.1935 30.9856 32.4572 30.1975 32.4583H11.8022Z" fill="#111111"/>
</svg>
